HIERARCHY
ROOT Hips
{
	OFFSET 0.000000 0.000000 0.000000
	CHANNELS 6 Xposition Yposition Zposition Zrotation Yrotation Xrotation 
	JOINT LHipJoint
	{
		OFFSET 0.000000 0.000000 0.000000
		CHANNELS 3 Zrotation Yrotation Xrotation
		JOINT LeftUpLeg
		{
			OFFSET 1.363060 -1.794630 0.839290
			CHANNELS 3 Zrotation Yrotation Xrotation
			JOINT LeftLeg
			{
				OFFSET 2.448110 -6.726130 0.000000
				CHANNELS 3 Zrotation Yrotation Xrotation
				JOINT LeftFoot
				{
					OFFSET 2.562200 -7.039590 0.000000
					CHANNELS 3 Zrotation Yrotation Xrotation
					JOINT LeftToeBase
					{
						OFFSET 0.157640 -0.433110 2.322550
						CHANNELS 3 Zrotation Yrotation Xrotation
						End Site
						{
							OFFSET 0.000000 0.000000 0.000000
						}
					}
				}
			}
		}
	}
	JOINT RHipJoint
	{
		OFFSET 0.000000 0.000000 0.000000
		CHANNELS 3 Zrotation Yrotation Xrotation
		JOINT RightUpLeg
		{
			OFFSET -1.305520 -1.794630 0.839290
			CHANNELS 3 Zrotation Yrotation Xrotation
			JOINT RightLeg
			{
				OFFSET -2.542530 -6.985550 0.000000
				CHANNELS 3 Zrotation Yrotation Xrotation
				JOINT RightFoot
				{
					OFFSET -2.568260 -7.056230 0.000000
					CHANNELS 3 Zrotation Yrotation Xrotation
					JOINT RightToeBase
					{
						OFFSET -0.164730 -0.452590 2.363150
						CHANNELS 3 Zrotation Yrotation Xrotation
						End Site
						{
							OFFSET 0.000000 0.000000 0.000000
						}
					}
				}
			}
		}
	}
	JOINT LowerBack
	{
		OFFSET 0.000000 0.000000 0.000000
		CHANNELS 3 Zrotation Yrotation Xrotation
		JOINT Spine
		{
			OFFSET 0.028270 2.035590 -0.193380
			CHANNELS 3 Zrotation Yrotation Xrotation
			JOINT Spine1
			{
				OFFSET 0.056720 2.048850 -0.042750
				CHANNELS 3 Zrotation Yrotation Xrotation
				JOINT Neck
				{
					OFFSET 0.000000 0.000000 0.000000
					CHANNELS 3 Zrotation Yrotation Xrotation
					JOINT Neck1
					{
						OFFSET -0.054170 1.746240 0.172020
						CHANNELS 3 Zrotation Yrotation Xrotation
						JOINT Head
						{
							OFFSET 0.104070 1.761360 -0.123970
							CHANNELS 3 Zrotation Yrotation Xrotation
							End Site
							{
								OFFSET 0.000000 0.000000 0.000000
							}
						}
					}
				}
				JOINT LeftShoulder
				{
					OFFSET 0.000000 0.000000 0.000000
					CHANNELS 3 Zrotation Yrotation Xrotation
					JOINT LeftArm
					{
						OFFSET 3.362410 1.200890 -0.311210
						CHANNELS 3 Zrotation Yrotation Xrotation
						JOINT LeftForeArm
						{
							OFFSET 4.983000 -0.000000 -0.000000
							CHANNELS 3 Zrotation Yrotation Xrotation
							JOINT LeftHand
							{
								OFFSET 3.483560 -0.000000 -0.000000
								CHANNELS 3 Zrotation Yrotation Xrotation
								JOINT LeftFingerBase
								{
									OFFSET 0.000000 0.000000 0.000000
									CHANNELS 3 Zrotation Yrotation Xrotation
									JOINT LeftHandIndex1
									{
										OFFSET 0.715260 -0.000000 -0.000000
										CHANNELS 3 Zrotation Yrotation Xrotation
										End Site
										{
											OFFSET 0.000000 0.000000 0.000000
										}
									}
								}
								JOINT LThumb
								{
									OFFSET 0.000000 0.000000 0.000000
									CHANNELS 3 Zrotation Yrotation Xrotation
									End Site
									{
										OFFSET 0.000000 0.000000 0.000000
									}
								}
							}
						}
					}
				}
				JOINT RightShoulder
				{
					OFFSET 0.000000 0.000000 0.000000
					CHANNELS 3 Zrotation Yrotation Xrotation
					JOINT RightArm
					{
						OFFSET -3.136600 1.374050 -0.404650
						CHANNELS 3 Zrotation Yrotation Xrotation
						JOINT RightForeArm
						{
							OFFSET -5.241900 -0.000000 -0.000000
							CHANNELS 3 Zrotation Yrotation Xrotation
							JOINT RightHand
							{
								OFFSET -3.444170 -0.000000 -0.000000
								CHANNELS 3 Zrotation Yrotation Xrotation
								JOINT RightFingerBase
								{
									OFFSET 0.000000 0.000000 0.000000
									CHANNELS 3 Zrotation Yrotation Xrotation
									JOINT RightHandIndex1
									{
										OFFSET -0.622530 -0.000000 -0.000000
										CHANNELS 3 Zrotation Yrotation Xrotation
										End Site
										{
											OFFSET 0.000000 0.000000 0.000000
										}
									}
								}
								JOINT RThumb
								{
									OFFSET 0.000000 0.000000 0.000000
									CHANNELS 3 Zrotation Yrotation Xrotation
									End Site
									{
										OFFSET 0.000000 0.000000 0.000000
									}
								}
							}
						}
					}
				}
			}
		}
	}
}
MOTION
Frames: 8
Frame Time: 0.008333
10.440018 16.816159 1.356926 176.410953 -89.437340 -141.138208 -9.627512 -0.751165 2.021776 -7.663174 -5.075045 -46.478306 -2.067598 -0.086147 25.082855 3.749073 13.362856 -20.798853 -2.840500 -0.000000 -41.593300 7.519153 0.675274 2.104484 5.888152 5.692888 -45.870365 2.864541 -0.223326 25.645650 -2.654001 -4.522105 -22.012621 1.463400 -0.000000 -60.063700 1.679725 -2.276554 -1.608462 -0.107379 -2.438979 -3.028408 -5.149136 -2.529237 1.597123 10.326154 -17.195713 -14.950936 -0.656608 0.094654 -2.316597 0.000000 0.000000 0.000000 2.424572 14.857518 2.677820 -67.149187 30.185172 26.822654 -1.827632 -53.291309 0.003563 5.017258 -1.171469 -0.052361 -0.136091 0.010157 -0.000000 0.000000 0.000000 0.000000 0.000000 0.000000 0.000000 7.438588 -13.538182 3.213834 72.396345 -15.424798 3.801155 2.703851 38.610430 0.022396 -6.965081 12.406515 -0.785288 0.177042 -0.147129 0.000000 0.000000 0.000000 0.000000 0.000000 0.000000 0.000000 
10.415535 16.735633 1.357320 -175.471379 -89.333470 -148.223367 -9.406523 -0.660116 2.135668 -7.692343 -5.581365 -48.731963 -2.093900 0.127795 27.333755 3.850109 13.235874 -21.960929 -3.102900 0.000000 -41.375500 7.667996 0.860462 2.169846 5.749405 5.745311 -48.397751 2.838593 -0.543986 28.310895 -2.640671 -4.132997 -22.796126 1.500899 0.000000 -60.207900 1.628544 -2.236147 -1.746058 -0.106365 -2.394945 -3.056618 -5.079839 -2.486766 1.601395 10.431255 -17.680345 -15.241650 -0.504324 0.115519 -2.416611 0.000000 0.000000 0.000000 2.523534 15.532085 2.682862 -66.234936 31.813480 27.791063 -1.778300 -54.704730 0.003981 4.854236 -1.317172 -0.057047 -0.137523 0.010368 -0.000000 0.000000 0.000000 0.000000 0.000000 0.000000 0.000000 7.228627 -13.974632 3.298817 71.723743 -17.175186 4.519873 2.672546 39.769059 0.024139 -6.934211 12.743333 -0.803173 0.179379 -0.146399 0.000000 0.000000 0.000000 0.000000 0.000000 0.000000 0.000000 
10.393356 16.644420 1.357503 -166.673109 -89.299429 -155.971071 -9.153761 -0.578284 2.230316 -7.731813 -6.065756 -51.079294 -2.115433 0.352089 29.738524 3.948572 13.059200 -23.195802 -3.376600 -0.000000 -41.037600 7.855599 1.044126 2.257626 5.586480 5.818177 -51.040110 2.794401 -0.902332 31.116689 -2.633526 -3.792580 -23.601368 1.537100 0.000000 -60.242600 1.620183 -2.214720 -1.884949 -0.092969 -2.371128 -3.088247 -5.001813 -2.465446 1.592826 10.515155 -18.101501 -15.510175 -0.351943 0.136253 -2.511995 0.000000 0.000000 0.000000 2.657145 16.153805 2.703920 -65.364396 33.414462 28.658061 -1.736936 -55.994132 0.004362 4.647022 -1.469367 -0.061036 -0.138649 0.011283 -0.000000 0.000000 0.000000 0.000000 0.000000 0.000000 0.000000 6.984179 -14.352251 3.384738 71.060846 -18.920412 5.192005 2.640247 40.879278 0.025859 -6.811009 13.080305 -0.810166 0.180655 -0.145867 0.000000 0.000000 0.000000 0.000000 0.000000 0.000000 0.000000 
10.373908 16.541921 1.357562 -157.223357 -89.362212 -164.356620 -8.890011 -0.529423 2.306511 -7.784759 -6.557145 -53.511668 -2.123836 0.583353 32.303239 4.047490 12.854080 -24.494114 -3.661801 0.000000 -40.524500 8.062413 1.207008 2.366946 5.382595 5.895955 -53.790902 2.731545 -1.299921 34.051343 -2.635788 -3.516520 -24.432441 1.576200 -0.000000 -60.153800 1.634131 -2.223397 -2.025507 -0.068436 -2.377901 -3.120424 -4.907385 -2.475642 1.582589 10.572702 -18.474803 -15.762199 -0.195400 0.157378 -2.604537 0.000000 0.000000 0.000000 2.860365 16.734527 2.745720 -64.583440 34.938754 29.434599 -1.705077 -57.103406 0.004712 4.409607 -1.627050 -0.064228 -0.139676 0.012910 -0.000000 0.000000 0.000000 0.000000 0.000000 0.000000 0.000000 6.690948 -14.695401 3.469029 70.415704 -20.635065 5.846273 2.606707 41.915841 0.027513 -6.605135 13.418151 -0.806465 0.180806 -0.145412 0.000000 0.000000 0.000000 0.000000 0.000000 0.000000 0.000000 
10.357585 16.427861 1.357749 -147.708426 -89.522544 -172.803093 -8.655302 -0.533619 2.367502 -7.853516 -7.073935 -56.013336 -2.113131 0.824842 35.026056 4.148440 12.644473 -25.843616 -3.958200 -0.000000 -39.794000 8.250584 1.334267 2.487068 5.125779 5.962312 -56.625474 2.648118 -1.729678 37.101535 -2.649280 -3.310413 -25.287855 1.621800 -0.000001 -59.936100 1.628710 -2.265317 -2.160877 -0.041493 -2.416824 -3.153912 -4.794056 -2.519005 1.562217 10.592487 -18.784357 -15.987967 -0.037213 0.178457 -2.691347 0.000000 0.000000 0.000000 3.123544 17.217437 2.807870 -63.936542 36.448352 30.020233 -1.683007 -58.052933 0.005029 4.128192 -1.786047 -0.066222 -0.140404 0.015218 -0.000000 0.000000 0.000000 0.000000 0.000000 0.000000 0.000000 6.338122 -14.987595 3.556306 69.815533 -22.342110 6.440368 2.572116 42.879637 0.029044 -6.308371 13.755962 -0.790269 0.179639 -0.145133 0.000000 0.000000 0.000000 0.000000 0.000000 0.000000 0.000000 
10.344446 16.301816 1.358089 -138.597963 -89.747152 179.155158 -8.472427 -0.587312 2.421193 -7.936071 -7.624116 -58.580139 -2.080863 1.084067 37.896389 4.254089 12.459627 -27.231544 -4.266300 -0.000000 -38.820000 8.398368 1.433443 2.608434 4.808543 6.014877 -59.525037 2.539044 -2.178199 40.260454 -2.674442 -3.171052 -26.165162 1.677200 0.000001 -59.588700 1.565082 -2.330247 -2.290054 -0.021629 -2.475880 -3.186524 -4.657107 -2.583081 1.540293 10.571807 -19.047955 -16.192922 0.126709 0.200036 -2.774058 0.000000 0.000000 0.000000 3.470337 17.625328 2.890345 -63.453908 37.909700 30.424370 -1.670250 -58.817351 0.005327 3.820340 -1.944342 -0.067022 -0.140969 0.018126 -0.000000 0.000000 0.000000 0.000000 0.000000 0.000000 0.000000 5.914622 -15.244263 3.646211 69.266335 -24.020908 7.000010 2.536300 43.761692 0.030404 -5.945838 14.091586 -0.763877 0.177329 -0.144995 0.000000 0.000000 0.000000 0.000000 0.000000 0.000000 0.000000 
10.334575 16.163842 1.358833 -130.674023 -89.989563 172.290743 -8.345247 -0.671918 2.472441 -8.016249 -8.198021 -61.203371 -2.025407 1.368634 40.899582 4.364891 12.320938 -28.641785 -4.585200 0.000000 -37.605200 8.501793 1.526470 2.720549 4.444500 6.060116 -62.455229 2.400982 -2.629625 43.509210 -2.710563 -3.092307 -27.057735 1.744800 -0.000000 -59.119200 1.438780 -2.400676 -2.406353 -0.012990 -2.537121 -3.218920 -4.500108 -2.649623 1.509097 10.505131 -19.258164 -16.371695 0.293962 0.221738 -2.850918 0.000000 0.000000 0.000000 3.876642 17.933078 2.988596 -63.153349 39.374166 30.575234 -1.665283 -59.435731 0.005600 3.480050 -2.096372 -0.066125 -0.141172 0.021594 -0.000000 0.000000 0.000000 0.000000 0.000000 0.000000 0.000000 5.417191 -15.446799 3.742904 68.783418 -25.689639 7.493849 2.499814 44.577344 0.031569 -5.527592 14.420737 -0.727693 0.174012 -0.145088 0.000000 0.000000 0.000000 0.000000 0.000000 0.000000 0.000000 
10.327657 16.013995 1.359953 55.798425 -89.776180 -13.134646 -8.257759 -0.769357 2.523750 -8.078610 -8.788749 -63.878423 -1.944179 1.678496 44.019100 4.481071 12.242855 -30.053690 -4.914500 0.000000 -36.179000 8.575683 1.632504 2.822073 4.047727 6.104205 -65.394700 2.233411 -3.075088 46.826038 -2.756391 -3.068860 -27.962212 1.825800 0.000000 -58.540600 1.268627 -2.465063 -2.510470 -0.012485 -2.589693 -3.249888 -4.325049 -2.707477 1.473786 10.394191 -19.430837 -16.529924 0.466042 0.243800 -2.923415 0.000000 0.000000 0.000000 4.343104 18.166476 3.100221 -63.034864 40.817087 30.494640 -1.666508 -59.911457 0.005854 3.128457 -2.239180 -0.063731 -0.141178 0.025580 -0.000000 0.000000 0.000000 0.000000 0.000000 0.000000 0.000000 4.847392 -15.606946 3.844901 68.360418 -27.338141 7.941792 2.461955 45.335408 0.032520 -5.088495 14.738692 -0.685809 0.170022 -0.145357 0.000000 0.000000 0.000000 0.000000 0.000000 0.000000 0.000000 
